<svg xmlns="http://www.w3.org/2000/svg" width="920" height="560" viewBox="0 0 920 560">
  <rect width="100%" height="100%" fill="#0f172a"/>
  <text x="460" y="28" fill="#e2e8f0" font-size="16" font-family="system-ui,sans-serif" text-anchor="middle">Trading Brain neural mesh v2 (concept)</text>
  <g font-family="system-ui,sans-serif" font-size="11" fill="#cbd5e1">
    <rect x="40" y="60" width="160" height="420" rx="8" fill="#1e293b" stroke="#334155"/>
    <text x="120" y="85" text-anchor="middle" fill="#94a3b8" font-size="10">Layer 1 Sensory</text>
    <rect x="60" y="100" width="120" height="36" rx="6" fill="#312e81" stroke="#6366f1"/>
    <text x="120" y="122" text-anchor="middle">Snapshots</text>
    <rect x="220" y="60" width="160" height="420" rx="8" fill="#1e293b" stroke="#334155"/>
    <text x="300" y="85" text-anchor="middle" fill="#94a3b8" font-size="10">Layer 2 Features</text>
    <rect x="240" y="100" width="120" height="36" rx="6" fill="#1e3a5f" stroke="#38bdf8"/>
    <text x="300" y="122" text-anchor="middle">Volatility</text>
    <rect x="400" y="60" width="200" height="420" rx="8" fill="#1e293b" stroke="#334155"/>
    <text x="500" y="85" text-anchor="middle" fill="#94a3b8" font-size="10">Layer 3 Latent + Event bus</text>
    <rect x="420" y="100" width="160" height="40" rx="8" fill="#422006" stroke="#f59e0b"/>
    <text x="500" y="125" text-anchor="middle" fill="#fef3c7">Event bus / router</text>
    <rect x="420" y="160" width="160" height="36" rx="6" fill="#14532d" stroke="#22c55e"/>
    <text x="500" y="182" text-anchor="middle">Regime</text>
    <rect x="420" y="210" width="160" height="36" rx="6" fill="#3f0f1a" stroke="#f43f5e"/>
    <text x="500" y="232" text-anchor="middle">Contradiction</text>
    <rect x="620" y="60" width="120" height="100" rx="8" fill="#1e293b" stroke="#334155"/>
    <text x="680" y="85" text-anchor="middle" fill="#94a3b8" font-size="10">Layer 4</text>
    <rect x="635" y="95" width="90" height="32" rx="6" fill="#312e81" stroke="#a78bfa"/>
    <text x="680" y="115" text-anchor="middle">Patterns</text>
    <rect x="620" y="180" width="120" height="100" rx="8" fill="#1e293b" stroke="#334155"/>
    <text x="680" y="205" text-anchor="middle" fill="#94a3b8" font-size="10">Layer 5</text>
    <rect x="635" y="215" width="90" height="32" rx="6" fill="#134e4a" stroke="#2dd4bf"/>
    <text x="680" y="235" text-anchor="middle">Evidence</text>
    <rect x="620" y="300" width="120" height="100" rx="8" fill="#1e293b" stroke="#334155"/>
    <text x="680" y="325" text-anchor="middle" fill="#94a3b8" font-size="10">Layer 6</text>
    <rect x="635" y="335" width="90" height="28" rx="6" fill="#14532d" stroke="#4ade80"/>
    <text x="680" y="352" text-anchor="middle">Action</text>
    <rect x="635" y="368" width="90" height="24" rx="4" fill="#334155" stroke="#94a3b8" stroke-dasharray="4 3"/>
    <text x="680" y="384" text-anchor="middle" font-size="9" fill="#94a3b8">Observers</text>
    <rect x="40" y="480" width="840" height="60" rx="8" fill="#1e293b" stroke="#334155"/>
    <text x="460" y="505" text-anchor="middle" fill="#94a3b8" font-size="10">Layer 7 Meta  decay / reweight (dashed loop to evidence &amp; edges)</text>
    <text x="460" y="528" text-anchor="middle" fill="#64748b" font-size="9">Green arrows H excitatory · Red dashed H inhibitory (e.g. contradiction ’ action)</text>
  </g>
  <g stroke-width="2" fill="none">
    <path d="M200 118 L240 118" stroke="#22c55e" marker-end="url(#arrG)"/>
    <path d="M360 118 L420 118" stroke="#22c55e" marker-end="url(#arrG)"/>
    <path d="M500 136 L500 160" stroke="#22c55e" marker-end="url(#arrG)"/>
    <path d="M580 178 L620 115" stroke="#22c55e" marker-end="url(#arrG)"/>
    <path d="M680 127 L680 215" stroke="#22c55e" marker-end="url(#arrG)"/>
    <path d="M680 247 L680 335" stroke="#22c55e" marker-end="url(#arrG)"/>
    <path d="M500 246 L660 360" stroke="#f87171" stroke-dasharray="6 4" marker-end="url(#arrR)"/>
  </g>
  <defs>
    <marker id="arrG" markerWidth="8" markerHeight="8" refX="7" refY="4" orient="auto">
      <path d="M0,0 L8,4 L0,8 z" fill="#22c55e"/>
    </marker>
    <marker id="arrR" markerWidth="8" markerHeight="8" refX="7" refY="4" orient="auto">
      <path d="M0,0 L8,4 L0,8 z" fill="#f87171"/>
    </marker>
  </defs>
</svg>
